<?xml version="1.0" encoding="UTF-8" standalone="no"?>
<!-- Created with Inkscape (http://www.inkscape.org/) -->

<svg
   width="300mm"
   height="300mm"
   viewBox="0 0 300 300"
   version="1.1"
   id="svg1"
   xml:space="preserve"
   xmlns="http://www.w3.org/2000/svg"
   xmlns:svg="http://www.w3.org/2000/svg"><defs
     id="defs1"><style
       id="style1">
      .st0 {
        fill: #26251e;
      }
    </style><style
       id="style1-2">
      .st0 {
        fill: #72716d;
      }

      .st1 {
        fill: #55544f;
      }

      .st2 {
        fill: #fff;
      }

      .st3 {
        fill: #43413c;
      }

      .st4 {
        fill: #d6d5d2;
      }
    </style><filter
       id="filter0_d"
       x="-8.3941097"
       y="15.8291"
       width="116.727"
       height="92.245598"
       filterUnits="userSpaceOnUse"
       color-interpolation-filters="sRGB"><feFlood
         flood-opacity="0"
         result="BackgroundImageFix"
         id="feFlood6" /><feColorMatrix
         in="SourceAlpha"
         type="matrix"
         values="0 0 0 0 0 0 0 0 0 0 0 0 0 0 0 0 0 0 127 0"
         id="feColorMatrix6" /><feOffset
         id="feOffset6" /><feGaussianBlur
         stdDeviation="4.16667"
         id="feGaussianBlur6" /><feColorMatrix
         type="matrix"
         values="0 0 0 0 0 0 0 0 0 0 0 0 0 0 0 0 0 0 0.25 0"
         id="feColorMatrix7" /><feBlend
         mode="overlay"
         in2="BackgroundImageFix"
         result="effect1_dropShadow"
         id="feBlend7" /><feBlend
         mode="normal"
         in="SourceGraphic"
         in2="effect1_dropShadow"
         result="shape"
         id="feBlend8" /></filter><filter
       id="filter1_d"
       x="60.416698"
       y="-8.0755796"
       width="47.916698"
       height="116.151"
       filterUnits="userSpaceOnUse"
       color-interpolation-filters="sRGB"><feFlood
         flood-opacity="0"
         result="BackgroundImageFix"
         id="feFlood8" /><feColorMatrix
         in="SourceAlpha"
         type="matrix"
         values="0 0 0 0 0 0 0 0 0 0 0 0 0 0 0 0 0 0 127 0"
         id="feColorMatrix8" /><feOffset
         id="feOffset8" /><feGaussianBlur
         stdDeviation="4.16667"
         id="feGaussianBlur8" /><feColorMatrix
         type="matrix"
         values="0 0 0 0 0 0 0 0 0 0 0 0 0 0 0 0 0 0 0.25 0"
         id="feColorMatrix9" /><feBlend
         mode="overlay"
         in2="BackgroundImageFix"
         result="effect1_dropShadow"
         id="feBlend9" /><feBlend
         mode="normal"
         in="SourceGraphic"
         in2="effect1_dropShadow"
         result="shape"
         id="feBlend10" /></filter><linearGradient
       id="paint0_linear"
       x1="49.939201"
       y1="0.25781199"
       x2="49.939201"
       y2="99.742302"
       gradientUnits="userSpaceOnUse"><stop
         stop-color="white"
         id="stop10" /><stop
         offset="1"
         stop-color="white"
         stop-opacity="0"
         id="stop11" /></linearGradient></defs><g
     id="layer1"><g
       id="g1"
       transform="matrix(0.22536164,0,0,0.22536164,7.6950078,140.39586)"><path
         class="st0"
         d="m 233.37,266.66 231.16,133.46 c -1.42,2.46 -3.48,4.56 -6.03,6.03 L 242.44,530.89 c -5.61,3.24 -12.53,3.24 -18.14,0 L 8.24,406.15 c -2.55,-1.47 -4.61,-3.57 -6.03,-6.03 z"
         id="path1" /><path
         class="st1"
         d="M 233.37,0 V 266.66 L 2.21,400.12 C 0.79,397.66 0,394.82 0,391.88 V 141.44 c 0,-5.89 3.14,-11.32 8.24,-14.27 L 224.29,2.43 C 227.1,0.81 230.23,0 233.36,0 Z"
         id="path2" /><path
         class="st3"
         d="m 464.52,133.2 c -1.42,-2.46 -3.48,-4.56 -6.03,-6.03 L 242.43,2.43 C 239.63,0.81 236.5,0 233.37,0 v 266.66 l 231.16,133.46 c 1.42,-2.46 2.21,-5.3 2.21,-8.24 V 141.44 c 0,-2.95 -0.78,-5.77 -2.21,-8.24 z"
         id="path3" /><path
         class="st4"
         d="m 448.35,142.54 c 1.31,2.26 1.49,5.16 0,7.74 L 238.52,513.7 c -1.41,2.46 -5.16,1.45 -5.16,-1.38 V 272.84 c 0,-1.91 -0.51,-3.75 -1.44,-5.36 L 448.34,142.53 h 0.01 z"
         id="path4" /><path
         class="st2"
         d="M 448.35,142.54 231.93,267.49 c -0.92,-1.6 -2.26,-2.96 -3.92,-3.92 L 20.62,143.83 c -2.46,-1.41 -1.45,-5.16 1.38,-5.16 h 419.65 c 2.98,0 5.4,1.61 6.7,3.87 z"
         id="path5" /></g><g
       style="fill:none"
       id="g2"
       transform="matrix(1.0059736,0,0,1.0059736,10.019512,47.538089)"><g
         mask="url(#mask0)"
         id="g6"><path
           d="M 96.4614,10.7962 75.8569,0.875542 C 73.4719,-0.272773 70.6217,0.211611 68.75,2.08333 L 1.29858,63.5832 c -1.814273,1.6541 -1.812187,4.5105 0.0045,6.162 l 5.50964,5.0088 c 1.48521,1.3502 3.72198,1.4496 5.32108,0.2365 L 93.3609,13.3699 C 96.086,11.3026 100,13.2462 100,16.6667 v -0.2392 c 0,-2.401 -1.3754,-4.5897 -3.5386,-5.6313 z"
           fill="#0065a9"
           id="path2-8" /><g
           filter="url(#filter0_d)"
           id="g3"><path
             d="m 96.4614,89.2038 -20.6045,9.9207 c -2.385,1.1485 -5.2352,0.6639 -7.1069,-1.2078 L 1.29858,36.4169 c -1.814273,-1.6542 -1.812187,-4.5106 0.0045,-6.1621 L 6.81272,25.246 C 8.29793,23.8958 10.5347,23.7964 12.1338,25.0095 L 93.3609,86.6301 C 96.086,88.6974 100,86.7538 100,83.3334 v 0.2392 c 0,2.4009 -1.3754,4.5896 -3.5386,5.6312 z"
             fill="#007acc"
             id="path3-3" /></g><g
           filter="url(#filter1_d)"
           id="g4"><path
             d="M 75.8578,99.1263 C 73.4721,100.274 70.6219,99.7885 68.75,97.9166 71.0564,100.223 75,98.5895 75,95.3278 V 4.67213 C 75,1.41039 71.0564,-0.223106 68.75,2.08329 70.6219,0.211402 73.4721,-0.273666 75.8578,0.873633 L 96.4587,10.7807 C 98.6234,11.8217 100,14.0112 100,16.4132 v 67.1739 c 0,2.402 -1.3766,4.5915 -3.5414,5.6325 z"
             fill="#1f9cf0"
             id="path4-9" /></g><g
           style="mix-blend-mode:overlay"
           opacity="0.25"
           id="g5"><path
             fill-rule="evenodd"
             clip-rule="evenodd"
             d="m 70.8511,99.3171 c 1.575,0.6135 3.371,0.5742 4.9606,-0.1907 L 96.4,89.2197 c 2.1634,-1.041 3.5392,-3.2305 3.5392,-5.6326 V 16.4133 c 0,-2.4021 -1.3757,-4.5916 -3.5391,-5.6326 L 75.8117,0.873695 C 73.7255,-0.13019 71.2838,0.115699 69.4527,1.44688 69.1912,1.63705 68.942,1.84937 68.7082,2.08335 L 29.2943,38.0414 12.1264,25.0096 C 10.5283,23.7964 8.29285,23.8959 6.80855,25.246 l -5.5063,5.0088 c -1.815584,1.6516 -1.817665,4.5079 -0.0045,6.1621 L 16.1863,50 1.29775,63.5832 c -1.813165,1.6542 -1.811084,4.5105 0.0045,6.162 l 5.5063,5.0088 c 1.4843,1.3502 3.71975,1.4496 5.31785,0.2365 L 29.2943,61.9586 68.7082,97.9167 c 0.6235,0.6238 1.3556,1.0937 2.1429,1.4004 z M 74.9544,27.2989 45.0483,50 74.9544,72.7012 Z"
             fill="url(#paint0_linear)"
             id="path5-0"
             style="fill:url(#paint0_linear)" /></g></g></g><g
       id="Group"
       style="fill:none;fill-rule:evenodd;stroke:none;stroke-width:1"
       transform="matrix(0.98152557,0,0,0.98152557,107.02725,49.471467)"><rect
         id="Rectangle"
         fill="#56b3b4"
         x="165"
         y="40"
         width="20"
         height="10"
         rx="5" /><rect
         id="rect1"
         fill="#ea5e5e"
         x="15"
         y="200"
         width="60"
         height="10"
         rx="5" /><rect
         id="rect2"
         fill="#bf85bf"
         x="135"
         y="120"
         width="40"
         height="10"
         rx="5" /><rect
         id="rect3"
         fill="#ea5e5e"
         x="75"
         y="120"
         width="50"
         height="10"
         rx="5" /><rect
         id="rect4"
         fill="#56b3b4"
         x="15"
         y="120"
         width="50"
         height="10"
         rx="5" /><rect
         id="rect5"
         fill="#bf85bf"
         x="15"
         y="160"
         width="60"
         height="10"
         rx="5" /><rect
         id="rect6"
         fill="#bf85bf"
         x="15"
         y="80"
         width="60"
         height="10"
         rx="5" /><rect
         id="rect7"
         fill="#f7ba3e"
         x="65"
         y="20"
         width="110"
         height="10"
         rx="5" /><rect
         id="rect8"
         fill="#ea5e5e"
         x="15"
         y="20"
         width="40"
         height="10"
         rx="5" /><rect
         id="rect9"
         fill="#f7ba3e"
         x="55"
         y="180"
         width="20"
         height="10"
         rx="5" /><rect
         id="rect10"
         fill="#56b3b4"
         x="55"
         y="60"
         width="20"
         height="10"
         rx="5" /><rect
         id="rect11"
         fill="#56b3b4"
         x="15"
         y="180"
         width="30"
         height="10"
         rx="5" /><rect
         id="rect12"
         fill="#f7ba3e"
         x="15"
         y="60"
         width="30"
         height="10"
         rx="5" /><rect
         id="rect13"
         fill="#56b3b4"
         x="95"
         y="100"
         width="90"
         height="10"
         rx="5" /><rect
         id="rect14"
         fill="#f7ba3e"
         x="45"
         y="100"
         width="40"
         height="10"
         rx="5" /><rect
         id="rect15"
         fill="#ea5e5e"
         x="15"
         y="100"
         width="20"
         height="10"
         rx="5" /><rect
         id="rect16"
         fill="#bf85bf"
         x="105"
         y="40"
         width="50"
         height="10"
         rx="5" /><rect
         id="rect17"
         fill="#56b3b4"
         x="15"
         y="40"
         width="80"
         height="10"
         rx="5" /><rect
         id="rect18"
         fill="#f7ba3e"
         x="45"
         y="140"
         width="100"
         height="10"
         rx="5" /><rect
         id="rect19"
         fill="#bf85bf"
         x="15"
         y="140"
         width="20"
         height="10"
         rx="5" /><rect
         id="rect20"
         fill="#ea5e5e"
         x="135"
         y="60"
         width="60"
         height="10"
         rx="5" /><rect
         id="rect21"
         fill="#f7ba3e"
         x="135"
         y="80"
         width="60"
         height="10"
         rx="5" /><rect
         id="rect22"
         fill="#56b3b4"
         x="15"
         y="0"
         width="130"
         height="10"
         rx="5" /></g></g></svg>
